# xmcd
#
# Track frame offsets:
#	150
#	17494
#	38766
#	56706
#	71548
#	87467
#	104177
#	115076
#	135183
#	153666
#	168046
#	183483
# Disc length: 2707 seconds
# Revision: 12
# Processed by: cddbd v1.5.1PL0 Copyright (c) Steve Scherf et al.
#
# Submitted via: libkcddb 0.10
#
DISCID=9a0a910c
DTITLE=Alison Krauss - Now That I've Found You
DYEAR=1995
DGENRE=Bluegrass
TTITLE0=Baby, Now That I've Found You
TTITLE1=Oh, Atlanta
TTITLE2=Broadway
TTITLE3=Every Time You Say Goodbye
TTITLE4=Tonight I'll Be Lonely Too
TTITLE5=Teardrops Will Kiss The Morning Dew
TTITLE6=Sleep On
TTITLE7=When God Dips His Pen Of Love In My Heart
TTITLE8=I Will
TTITLE9=I Don't Believe You've Met My Baby
TTITLE10=In The Palm Of Your Hand
TTITLE11=When You Say Nothing At All
EXTD=A Collection
EXTT0=
EXTT1=
EXTT2=
EXTT3=
EXTT4=
EXTT5=
EXTT6=
EXTT7=
EXTT8=
EXTT9=
EXTT10=
EXTT11=
PLAYORDER=
